<svg xmlns="http://www.w3.org/2000/svg" viewBox="0 0 800 420">
  <defs>
    <linearGradient id="bg2" x1="0" y1="0" x2="1" y2="1">
      <stop offset="0%" stop-color="#eff6ff"/>
      <stop offset="100%" stop-color="#dbeafe"/>
    </linearGradient>
    <linearGradient id="hdr2" x1="0" y1="0" x2="1" y2="0">
      <stop offset="0%" stop-color="#2563eb"/>
      <stop offset="100%" stop-color="#06b6d4"/>
    </linearGradient>
  </defs>
  <rect width="800" height="420" fill="url(#bg2)"/>

  <!-- Main container -->
  <rect x="32" y="32" width="736" height="356" rx="14" fill="white" opacity="0.88"/>

  <!-- Header -->
  <rect x="32" y="32" width="736" height="54" rx="14" fill="url(#hdr2)"/>
  <rect x="32" y="72" width="736" height="14" fill="url(#hdr2)"/>
  <text x="400" y="64" text-anchor="middle" font-family="system-ui,sans-serif" font-size="18" font-weight="700" fill="white">📊  白金鉱業 Meetup — 発表資料一覧</text>

  <!-- Slide card: row 1, col 1 -->
  <rect x="52" y="106" width="220" height="128" rx="8" fill="#1e40af"/>
  <rect x="52" y="106" width="220" height="38" rx="8" fill="#2563eb"/>
  <rect x="52" y="130" width="220" height="14" fill="#2563eb"/>
  <text x="162" y="130" text-anchor="middle" font-family="system-ui,sans-serif" font-size="11" font-weight="700" fill="white">データ分析基礎</text>
  <rect x="68" y="154" width="140" height="7" rx="3" fill="rgba(255,255,255,0.35)"/>
  <rect x="68" y="167" width="110" height="7" rx="3" fill="rgba(255,255,255,0.25)"/>
  <rect x="68" y="180" width="130" height="7" rx="3" fill="rgba(255,255,255,0.2)"/>
  <text x="162" y="222" text-anchor="middle" font-family="system-ui,sans-serif" font-size="18" fill="rgba(255,255,255,0.15)">📊</text>

  <!-- Slide card: row 1, col 2 -->
  <rect x="290" y="106" width="220" height="128" rx="8" fill="#0f766e"/>
  <rect x="290" y="106" width="220" height="38" rx="8" fill="#0d9488"/>
  <rect x="290" y="130" width="220" height="14" fill="#0d9488"/>
  <text x="400" y="130" text-anchor="middle" font-family="system-ui,sans-serif" font-size="11" font-weight="700" fill="white">機械学習入門</text>
  <rect x="306" y="154" width="130" height="7" rx="3" fill="rgba(255,255,255,0.35)"/>
  <rect x="306" y="167" width="150" height="7" rx="3" fill="rgba(255,255,255,0.25)"/>
  <rect x="306" y="180" width="100" height="7" rx="3" fill="rgba(255,255,255,0.2)"/>
  <text x="400" y="222" text-anchor="middle" font-family="system-ui,sans-serif" font-size="18" fill="rgba(255,255,255,0.15)">🤖</text>

  <!-- Slide card: row 1, col 3 -->
  <rect x="528" y="106" width="220" height="128" rx="8" fill="#6d28d9"/>
  <rect x="528" y="106" width="220" height="38" rx="8" fill="#7c3aed"/>
  <rect x="528" y="130" width="220" height="14" fill="#7c3aed"/>
  <text x="638" y="130" text-anchor="middle" font-family="system-ui,sans-serif" font-size="11" font-weight="700" fill="white">LLM 活用事例</text>
  <rect x="544" y="154" width="120" height="7" rx="3" fill="rgba(255,255,255,0.35)"/>
  <rect x="544" y="167" width="140" height="7" rx="3" fill="rgba(255,255,255,0.25)"/>
  <rect x="544" y="180" width="90" height="7" rx="3" fill="rgba(255,255,255,0.2)"/>
  <text x="638" y="222" text-anchor="middle" font-family="system-ui,sans-serif" font-size="18" fill="rgba(255,255,255,0.15)">💡</text>

  <!-- Slide card: row 2, col 1 -->
  <rect x="52" y="250" width="220" height="118" rx="8" fill="#be123c"/>
  <rect x="52" y="250" width="220" height="36" rx="8" fill="#e11d48"/>
  <rect x="52" y="272" width="220" height="14" fill="#e11d48"/>
  <text x="162" y="272" text-anchor="middle" font-family="system-ui,sans-serif" font-size="11" font-weight="700" fill="white">因果推論の実践</text>
  <rect x="68" y="296" width="150" height="7" rx="3" fill="rgba(255,255,255,0.35)"/>
  <rect x="68" y="309" width="110" height="7" rx="3" fill="rgba(255,255,255,0.25)"/>
  <rect x="68" y="322" width="130" height="7" rx="3" fill="rgba(255,255,255,0.2)"/>

  <!-- Slide card: row 2, col 2 -->
  <rect x="290" y="250" width="220" height="118" rx="8" fill="#b45309"/>
  <rect x="290" y="250" width="220" height="36" rx="8" fill="#d97706"/>
  <rect x="290" y="272" width="220" height="14" fill="#d97706"/>
  <text x="400" y="272" text-anchor="middle" font-family="system-ui,sans-serif" font-size="11" font-weight="700" fill="white">データエンジニアリング</text>
  <rect x="306" y="296" width="120" height="7" rx="3" fill="rgba(255,255,255,0.35)"/>
  <rect x="306" y="309" width="150" height="7" rx="3" fill="rgba(255,255,255,0.25)"/>
  <rect x="306" y="322" width="80" height="7" rx="3" fill="rgba(255,255,255,0.2)"/>

  <!-- Slide card: row 2, col 3 -->
  <rect x="528" y="250" width="220" height="118" rx="8" fill="#065f46"/>
  <rect x="528" y="250" width="220" height="36" rx="8" fill="#059669"/>
  <rect x="528" y="272" width="220" height="14" fill="#059669"/>
  <text x="638" y="272" text-anchor="middle" font-family="system-ui,sans-serif" font-size="11" font-weight="700" fill="white">MLOps・実験管理</text>
  <rect x="544" y="296" width="140" height="7" rx="3" fill="rgba(255,255,255,0.35)"/>
  <rect x="544" y="309" width="100" height="7" rx="3" fill="rgba(255,255,255,0.25)"/>
  <rect x="544" y="322" width="120" height="7" rx="3" fill="rgba(255,255,255,0.2)"/>

  <!-- "more" indicator -->
  <text x="400" y="392" text-anchor="middle" font-family="system-ui,sans-serif" font-size="12" fill="#94a3b8">… 全資料を connpass で確認 →</text>
</svg>
